{"title":"The Woman in Black 2012 Cam XviD Feel-Free-","uid":7036078,"size":862460494,"categoryP":"video","categoryS":"movies","magnet":"?xt=urn:btih:05c83ba12f6bb857b138479ba2b8a727cc9016be&amp;dn=The+Woman+in+Black+2012+Cam+XviD+Feel-Free-&amp;tr=udp%3A%2F%2Ftracker.openbittorrent.com%3A80&amp;tr=udp%3A%2F%2Fopen.demonii.com%3A1337&amp;tr=udp%3A%2F%2Ftracker.coppersurfer.tk%3A6969&amp;tr=udp%3A%2F%2Fexodus.desync.com%3A6969","seeders":0,"leechers":0,"uploader":"moviesp2p","files":1,"time":1329387925,"description":"More info on www. MoviesP2P .com\n\nGenrerama | Horror | Thriller\nLanguage:English\nIMDb:http://www.imdb.com/title/tt1596365/\nSource:INFERNO Thanks!\nEncoder:Tony\n \nFormat                                   : AVI\nFormat/Info                              : Audio Video Interleave\nFile size                                : 823 MiB\nDuration                                 : 1h 29mn\nOverall bit rate                         : 1 284 Kbps\nWriting application                      : Lavf51.12.1\n\nVideo\nID                                       : 0\nFormat                                   : MPEG-4 Visual\nFormat profile                           : Advanced Simple@L5\nFormat settings, BVOP                    : 2\nFormat settings, QPel                    : No\nFormat settings, GMC                     : No warppoints\nFormat settings, Matrix                  : Default (H.263)\nMuxing mode                              : Packed bitstream\nCodec ID                                 : XVID\nCodec ID/Hint                            : XviD\nDuration                                 : 1h 29mn\nBit rate                                 : 1 080 Kbps\nWidth                                    : 720 pixels\nHeight                                   : 304 pixels\nDisplay aspect ratio                     : 2.35:1\nFrame rate                               : 29.970 fps\nColor space                              : YUV\nChroma subsampling                       : 4:2:0\nBit depth                                : 8 bits\nScan type                                : Progressive\nCompression mode                         : Lossy\nBits/(Pixel*Frame)                       : 0.165\nStream size                              : 692 MiB (84%)\nWriting library                          : XviD 64\n\nAudio\nID                                       : 1\nFormat                                   : MPEG Audio\nFormat version                           : Version 1\nFormat profile                           : Layer 3\nMode                                     : Joint stereo\nMode extension                           : MS Stereo\nCodec ID                                 : 55\nCodec ID/Hint                            : MP3\nDuration                                 : 1h 29mn\nBit rate mode                            : Constant\nBit rate                                 : 192 Kbps\nChannel(s)                               : 2 channels\nSampling rate                            : 44.1 KHz\nCompression mode                         : Lossy\nStream size                              : 123 MiB (15%)\nAlignment                                : Split accross interleaves\nInterleave, duration                     : 33 ms (1.00 video frame)\nInterleave, preload duration             : 500 ms","torrent":{"xt":"urn:btih:05c83ba12f6bb857b138479ba2b8a727cc9016be","amp;dn":"The+Woman+in+Black+2012+Cam+XviD+Feel-Free-","amp;tr":["udp%3A%2F%2Ftracker.openbittorrent.com%3A80","udp%3A%2F%2Fopen.demonii.com%3A1337","udp%3A%2F%2Ftracker.coppersurfer.tk%3A6969","udp%3A%2F%2Fexodus.desync.com%3A6969"],"infoHash":"05c83ba12f6bb857b138479ba2b8a727cc9016be","infoHashBuffer":{"type":"Buffer","data":[5,200,59,161,47,107,184,87,177,56,71,155,162,184,167,39,204,144,22,190]},"announce":[],"urlList":[]}}